<mxfile host="app.diagrams.net" agent="Mozilla/5.0 (X11; Ubuntu; Linux x86_64; rv:132.0) Gecko/20100101 Firefox/132.0" version="24.8.6">
  <diagram name="Page-1" id="DyOmVvZxJugnKIRD2Ew2">
    <mxGraphModel dx="2452" dy="795" grid="1" gridSize="10" guides="1" tooltips="1" connect="1" arrows="1" fold="1" page="1" pageScale="1" pageWidth="850" pageHeight="1100" math="0" shadow="0">
      <root>
        <mxCell id="0" />
        <mxCell id="1" parent="0" />
        <mxCell id="EGFOrscYvpI5MOXuME6B-2" value="&lt;div&gt;HN: &lt;br&gt;&lt;/div&gt;&lt;div&gt;IP: &lt;br&gt;&lt;/div&gt;&lt;div&gt;Ports: &lt;br&gt;&lt;/div&gt;&lt;div&gt;Float: &lt;br&gt;&lt;/div&gt;" style="ellipse;whiteSpace=wrap;html=1;" vertex="1" parent="1">
          <mxGeometry x="-200" y="80" width="160" height="160" as="geometry" />
        </mxCell>
        <mxCell id="EGFOrscYvpI5MOXuME6B-4" value="&lt;div&gt;HN: &lt;br&gt;&lt;/div&gt;&lt;div&gt;IP: &lt;br&gt;&lt;/div&gt;&lt;div&gt;Ports: &lt;br&gt;&lt;/div&gt;" style="ellipse;whiteSpace=wrap;html=1;" vertex="1" parent="1">
          <mxGeometry x="-200" y="320" width="160" height="160" as="geometry" />
        </mxCell>
        <mxCell id="EGFOrscYvpI5MOXuME6B-5" value="&lt;div&gt;HN: Me ;D&lt;br&gt;&lt;/div&gt;&lt;div&gt;IP: 172.16.1.129&lt;br&gt;&lt;/div&gt;&lt;div&gt;Ports: 21,22,23,80&lt;br&gt;&lt;/div&gt;&lt;div&gt;Float: 10.50.20.6&lt;br&gt;&lt;/div&gt;" style="ellipse;whiteSpace=wrap;html=1;" vertex="1" parent="1">
          <mxGeometry x="40" y="200" width="160" height="160" as="geometry" />
        </mxCell>
        <mxCell id="EGFOrscYvpI5MOXuME6B-6" value="" style="endArrow=classic;html=1;rounded=0;exitX=1;exitY=0.5;exitDx=0;exitDy=0;" edge="1" parent="1" source="EGFOrscYvpI5MOXuME6B-5">
          <mxGeometry width="50" height="50" relative="1" as="geometry">
            <mxPoint x="280" y="270" as="sourcePoint" />
            <mxPoint x="280" y="280" as="targetPoint" />
          </mxGeometry>
        </mxCell>
      </root>
    </mxGraphModel>
  </diagram>
</mxfile>
